<?xml version="1.0" encoding="UTF-8"?>
<svg xmlns="http://www.w3.org/2000/svg" xmlns:xlink="http://www.w3.org/1999/xlink" width="680px" height="273px" viewBox="0 0 679 273" version="1.1">
<g id="surface1">
<path style=" stroke:none;fill-rule:nonzero;fill:rgb(0%,3.137255%,30.980393%);fill-opacity:1;" d="M 18.847656 101.089844 L 46.0625 84.144531 L 15.042969 211.890625 C 0.429688 196.195312 -1.847656 187.402344 1.148438 171.71875 Z M 18.847656 101.089844 "/>
<path style=" stroke:none;fill-rule:nonzero;fill:rgb(0%,3.137255%,30.980393%);fill-opacity:1;" d="M 56.71875 78.054688 L 86.785156 61.683594 L 41.875 237.398438 C 29.605469 226.636719 21.003906 221.210938 26.078125 204.273438 Z M 56.71875 78.054688 "/>
<path style=" stroke:none;fill-rule:nonzero;fill:rgb(0%,3.137255%,30.980393%);fill-opacity:1;" d="M 97.253906 56.542969 L 128.84375 41.121094 L 264.339844 41.121094 C 252.375 72.054688 243.863281 82.585938 223.804688 83.003906 L 120.46875 83.003906 L 109.242188 127.933594 L 181.746094 127.933594 C 169.972656 162.21875 161.390625 173.824219 140.832031 174.386719 L 97.253906 174.386719 L 74.605469 272.808594 C 57.425781 258.363281 48.011719 250.261719 51.769531 235.496094 Z M 97.253906 56.542969 "/>
<path style=" stroke:none;fill-rule:nonzero;fill:rgb(0%,3.137255%,30.980393%);fill-opacity:1;" d="M 97.253906 56.542969 L 128.84375 41.121094 L 264.339844 41.121094 C 252.375 72.054688 243.863281 82.585938 223.804688 83.003906 L 120.46875 83.003906 L 109.242188 127.933594 L 181.746094 127.933594 C 169.972656 162.21875 161.390625 173.824219 140.832031 174.386719 L 97.253906 174.386719 L 74.605469 272.808594 C 57.425781 258.363281 48.011719 250.261719 51.769531 235.496094 Z M 97.253906 56.542969 "/>
<path style=" stroke:none;fill-rule:nonzero;fill:rgb(59.215689%,89.019608%,99.215686%);fill-opacity:1;" d="M 40.542969 0 L 285.082031 0 C 282.4375 18.082031 278.101562 25.234375 266.621094 34.078125 L 127.890625 34.078125 L 98.394531 49.308594 L 101.4375 29.316406 L 105.625 29.316406 L 98.394531 19.609375 L 90.019531 29.316406 L 94.015625 29.316406 L 88.6875 52.542969 L 57.667969 70.058594 L 60.144531 52.542969 L 64.140625 52.542969 L 57.667969 42.074219 L 48.535156 52.542969 L 53.292969 52.542969 L 48.535156 75.007812 L 19.417969 92.902344 Z M 40.542969 0 "/>
<path style=" stroke:none;fill-rule:nonzero;fill:rgb(0%,3.137255%,30.980393%);fill-opacity:1;" d="M 201.5625 185.808594 L 201.5625 117.421875 L 274.605469 117.421875 L 274.605469 129.855469 L 216.859375 129.855469 L 216.859375 148.792969 L 267.148438 148.792969 L 267.148438 161.226562 L 216.859375 161.226562 L 216.859375 185.808594 Z M 285.125 185.808594 L 285.125 117.421875 L 300.421875 117.421875 L 300.421875 185.808594 Z M 313.789062 185.808594 L 313.789062 117.421875 L 329.277344 117.421875 L 377.65625 166.582031 L 377.65625 117.421875 L 392.953125 117.421875 L 392.953125 185.808594 L 377.464844 185.808594 L 329.085938 136.550781 L 329.085938 185.808594 Z M 440.832031 186.285156 C 428.65625 186.285156 419.226562 183.382812 412.53125 177.582031 C 405.839844 171.714844 402.492188 163.042969 402.492188 151.566406 C 402.492188 140.152344 405.839844 131.542969 412.53125 125.742188 C 419.226562 119.875 428.882812 116.941406 441.503906 116.941406 L 458.710938 116.941406 C 471.332031 116.941406 480.984375 119.875 487.679688 125.742188 C 494.371094 131.542969 497.71875 140.152344 497.71875 151.566406 C 497.71875 163.042969 494.371094 171.714844 487.679688 177.582031 C 480.984375 183.382812 471.488281 186.285156 459.1875 186.285156 Z M 442.550781 129.375 C 435.476562 129.375 429.960938 130.652344 426.011719 133.203125 C 422.0625 135.753906 419.574219 139.800781 418.554688 145.347656 L 481.65625 145.347656 C 480.636719 139.800781 478.152344 135.753906 474.199219 133.203125 C 470.246094 130.652344 464.734375 129.375 457.660156 129.375 Z M 442.839844 173.851562 L 457.660156 173.851562 C 464.796875 173.851562 470.308594 172.578125 474.199219 170.027344 C 478.152344 167.476562 480.636719 163.394531 481.65625 157.785156 L 418.554688 157.785156 C 419.574219 163.394531 422.0625 167.476562 426.011719 170.027344 C 429.960938 172.578125 435.574219 173.851562 442.839844 173.851562 Z M 507.246094 185.808594 L 507.246094 117.421875 L 564.519531 117.421875 C 571.589844 117.421875 577.074219 119.207031 580.960938 122.777344 C 584.914062 126.347656 586.890625 131.769531 586.890625 139.035156 C 586.890625 145.222656 585.453125 150.066406 582.585938 153.574219 C 579.71875 157.082031 575.640625 159.28125 570.347656 160.175781 L 586.125 185.808594 L 568.722656 185.808594 L 554.097656 160.652344 L 522.542969 160.652344 L 522.542969 185.808594 Z M 562.699219 129.855469 L 522.542969 129.855469 L 522.542969 148.125 L 562.699219 148.21875 C 565.503906 148.21875 567.636719 147.515625 569.105469 146.113281 C 570.632812 144.710938 571.398438 142.351562 571.398438 139.035156 C 571.398438 135.65625 570.632812 133.296875 569.105469 131.960938 C 567.636719 130.554688 565.503906 129.855469 562.699219 129.855469 Z M 592.636719 185.808594 L 623.425781 117.421875 L 647.035156 117.421875 L 677.824219 185.808594 L 661.1875 185.808594 L 654.6875 171.363281 L 615.773438 171.363281 L 609.273438 185.808594 Z M 621.320312 158.929688 L 649.140625 158.929688 L 635.851562 129.375 L 634.609375 129.375 Z M 621.320312 158.929688 "/>
<path style=" stroke:none;fill-rule:nonzero;fill:rgb(0%,3.137255%,30.980393%);fill-opacity:1;" d="M 243.046875 216.117188 C 239.996094 216.117188 237.664062 215.414062 236.046875 214.011719 C 234.429688 212.597656 233.625 210.5 233.625 207.730469 C 233.625 204.972656 234.429688 202.886719 236.046875 201.46875 C 237.664062 200.050781 239.996094 199.351562 243.046875 199.367188 L 251.359375 199.414062 L 251.359375 202.371094 L 243.300781 202.371094 C 241.296875 202.371094 239.8125 202.792969 238.84375 203.640625 C 237.871094 204.488281 237.386719 205.851562 237.386719 207.730469 C 237.386719 209.609375 237.871094 210.980469 238.84375 211.839844 C 239.8125 212.6875 241.296875 213.113281 243.300781 213.113281 L 251.589844 213.113281 L 251.589844 216.117188 Z M 253.550781 216 L 253.550781 199.480469 L 256.898438 199.480469 L 256.898438 216 Z M 262.601562 216 C 261.351562 216 260.398438 215.683594 259.738281 215.054688 C 259.074219 214.421875 258.742188 213.519531 258.742188 212.351562 C 258.742188 211.195312 259.074219 210.300781 259.738281 209.671875 C 260.398438 209.039062 261.351562 208.722656 262.601562 208.722656 L 271.46875 208.722656 L 271.46875 208.167969 C 271.46875 207.230469 271.007812 206.757812 270.082031 206.757812 L 260.289062 206.757812 L 260.289062 204.101562 L 270.960938 204.101562 C 272.359375 204.101562 273.351562 204.425781 273.9375 205.074219 C 274.523438 205.703125 274.816406 206.597656 274.816406 207.753906 L 274.816406 216 Z M 263.199219 213.34375 L 271.46875 213.34375 L 271.46875 211.378906 L 263.199219 211.378906 C 262.90625 211.378906 262.675781 211.472656 262.507812 211.65625 C 262.355469 211.828125 262.277344 212.058594 262.277344 212.351562 C 262.277344 212.644531 262.355469 212.882812 262.507812 213.066406 C 262.675781 213.25 262.90625 213.34375 263.199219 213.34375 Z M 277.363281 216 L 277.363281 204.101562 L 286.464844 204.101562 C 287.804688 204.101562 288.789062 204.441406 289.417969 205.117188 C 290.050781 205.78125 290.367188 206.660156 290.367188 207.753906 L 290.367188 210.222656 L 286.972656 210.222656 L 286.972656 208.167969 C 286.972656 207.246094 286.511719 206.78125 285.585938 206.78125 L 280.757812 206.78125 L 280.757812 216 Z M 292.203125 216 L 292.203125 204.101562 L 295.550781 204.101562 L 295.550781 216 Z M 292.179688 202.140625 L 292.179688 199.527344 L 295.574219 199.527344 L 295.574219 202.140625 Z M 304.277344 216 C 302.9375 216 301.953125 215.667969 301.324219 215.007812 C 300.691406 214.328125 300.375 213.441406 300.375 212.351562 L 300.375 206.757812 L 296.933594 206.757812 L 296.933594 204.101562 L 300.375 204.101562 L 300.375 200.453125 L 303.726562 200.453125 L 303.726562 204.101562 L 308.667969 204.101562 L 308.667969 206.757812 L 303.726562 206.757812 L 303.726562 211.933594 C 303.726562 212.875 304.1875 213.34375 305.109375 213.34375 L 309.3125 213.34375 L 309.3125 216 Z M 313.714844 221.199219 L 313.714844 218.542969 L 320.6875 218.542969 C 321.613281 218.542969 322.074219 218.070312 322.074219 217.132812 L 322.074219 216 L 314.9375 216 C 313.582031 216 312.589844 215.660156 311.957031 214.984375 C 311.34375 214.304688 311.035156 213.429688 311.035156 212.351562 L 311.035156 204.101562 L 314.382812 204.101562 L 314.382812 211.957031 C 314.382812 212.882812 314.84375 213.34375 315.769531 213.34375 L 321.957031 213.34375 L 321.957031 204.101562 L 325.421875 204.101562 L 325.421875 217.546875 C 325.421875 218.640625 325.105469 219.519531 324.476562 220.179688 C 323.84375 220.859375 322.859375 221.199219 321.519531 221.199219 Z M 336.042969 216 L 336.042969 204.101562 L 339.394531 204.101562 L 339.394531 216 Z M 336.023438 202.140625 L 336.023438 199.527344 L 339.417969 199.527344 L 339.417969 202.140625 Z M 341.539062 216.117188 L 341.539062 213.457031 L 352.855469 213.457031 C 353.5 213.457031 353.824219 213.097656 353.824219 212.375 C 353.824219 211.664062 353.5 211.308594 352.855469 211.308594 L 345.535156 211.308594 C 344.164062 211.308594 343.125 211.003906 342.414062 210.386719 C 341.707031 209.753906 341.355469 208.855469 341.355469 207.683594 C 341.355469 206.496094 341.707031 205.589844 342.414062 204.957031 C 343.140625 204.308594 344.179688 203.988281 345.535156 203.988281 L 356.0625 203.988281 L 356.0625 206.644531 L 345.695312 206.644531 C 345.035156 206.644531 344.703125 206.96875 344.703125 207.613281 C 344.703125 207.9375 344.792969 208.191406 344.980469 208.375 C 345.164062 208.5625 345.402344 208.652344 345.695312 208.652344 L 353.453125 208.652344 C 354.65625 208.652344 355.570312 208.96875 356.203125 209.601562 C 356.847656 210.21875 357.171875 211.117188 357.171875 212.304688 C 357.171875 213.503906 356.847656 214.445312 356.203125 215.121094 C 355.554688 215.785156 354.640625 216.117188 353.453125 216.117188 Z M 373.402344 216 C 372.0625 216 371.074219 215.667969 370.445312 215.007812 C 369.8125 214.328125 369.496094 213.441406 369.496094 212.351562 L 369.496094 206.757812 L 366.058594 206.757812 L 366.058594 204.101562 L 369.496094 204.101562 L 369.496094 200.453125 L 372.847656 200.453125 L 372.847656 204.101562 L 377.789062 204.101562 L 377.789062 206.757812 L 372.847656 206.757812 L 372.847656 211.933594 C 372.847656 212.875 373.308594 213.34375 374.230469 213.34375 L 378.433594 213.34375 L 378.433594 216 Z M 380.15625 216 L 380.15625 199.480469 L 383.503906 199.480469 L 383.503906 204.101562 L 390.523438 204.101562 C 391.878906 204.101562 392.863281 204.441406 393.480469 205.117188 C 394.113281 205.78125 394.429688 206.660156 394.429688 207.753906 L 394.429688 216 L 391.078125 216 L 391.078125 208.144531 C 391.078125 207.222656 390.617188 206.757812 389.695312 206.757812 L 383.503906 206.757812 L 383.503906 216 Z M 402.941406 216.117188 C 400.875 216.117188 399.269531 215.605469 398.113281 214.589844 C 396.960938 213.558594 396.382812 212.050781 396.382812 210.0625 C 396.382812 208.0625 396.960938 206.550781 398.113281 205.535156 C 399.269531 204.503906 400.875 203.988281 402.941406 203.988281 L 408.714844 203.988281 C 410.066406 203.988281 411.097656 204.308594 411.808594 204.957031 C 412.535156 205.589844 412.894531 206.496094 412.894531 207.683594 C 412.894531 210.101562 411.503906 211.308594 408.714844 211.308594 L 399.984375 211.308594 C 400.308594 212.742188 401.296875 213.457031 402.941406 213.457031 L 412.292969 213.457031 L 412.292969 216.117188 Z M 402.941406 206.644531 C 401.355469 206.644531 400.378906 207.3125 400.007812 208.652344 L 408.554688 208.652344 C 408.863281 208.652344 409.101562 208.5625 409.269531 208.375 C 409.457031 208.191406 409.546875 207.9375 409.546875 207.613281 C 409.546875 206.96875 409.214844 206.644531 408.554688 206.644531 Z M 423.050781 216 L 423.050781 204.101562 L 433.417969 204.101562 C 434.773438 204.101562 435.757812 204.441406 436.375 205.117188 C 437.007812 205.78125 437.324219 206.660156 437.324219 207.753906 L 437.324219 216 L 433.972656 216 L 433.972656 208.144531 C 433.972656 207.222656 433.507812 206.757812 432.589844 206.757812 L 426.398438 206.757812 L 426.398438 216 Z M 445.832031 216.117188 C 443.769531 216.117188 442.164062 215.605469 441.007812 214.589844 C 439.855469 213.558594 439.277344 212.050781 439.277344 210.0625 C 439.277344 208.0625 439.855469 206.550781 441.007812 205.535156 C 442.164062 204.503906 443.769531 203.988281 445.832031 203.988281 L 451.605469 203.988281 C 452.960938 203.988281 453.992188 204.308594 454.703125 204.957031 C 455.425781 205.589844 455.785156 206.496094 455.785156 207.683594 C 455.785156 210.101562 454.394531 211.308594 451.605469 211.308594 L 442.878906 211.308594 C 443.203125 212.742188 444.1875 213.457031 445.832031 213.457031 L 455.1875 213.457031 L 455.1875 216.117188 Z M 445.832031 206.644531 C 444.25 206.644531 443.273438 207.3125 442.902344 208.652344 L 451.449219 208.652344 C 451.753906 208.652344 451.992188 208.5625 452.164062 208.375 C 452.34375 208.191406 452.441406 207.9375 452.441406 207.613281 C 452.441406 206.96875 452.109375 206.644531 451.449219 206.644531 Z M 458.425781 216 L 457.292969 204.101562 L 460.664062 204.101562 L 461.449219 213.136719 L 465.027344 211.519531 L 465.027344 204.101562 L 468.375 204.101562 L 468.375 211.542969 L 471.957031 213.136719 L 472.742188 204.101562 L 476.113281 204.101562 L 474.980469 216 L 471.816406 216 L 466.691406 213.734375 L 461.585938 216 Z M 494.996094 216.117188 C 491.949219 216.117188 489.613281 215.414062 487.996094 214.011719 C 486.378906 212.597656 485.574219 210.5 485.574219 207.730469 C 485.574219 204.972656 486.378906 202.886719 487.996094 201.46875 C 489.613281 200.050781 491.949219 199.351562 494.996094 199.367188 L 503.308594 199.414062 L 503.308594 202.371094 L 495.246094 202.371094 C 493.246094 202.371094 491.761719 202.792969 490.789062 203.640625 C 489.820312 204.488281 489.335938 205.851562 489.335938 207.730469 C 489.335938 209.609375 489.820312 210.980469 490.789062 211.839844 C 491.761719 212.6875 493.246094 213.113281 495.246094 213.113281 L 503.539062 213.113281 L 503.539062 216.117188 Z M 509.289062 216 C 507.933594 216 506.941406 215.660156 506.308594 214.984375 C 505.691406 214.304688 505.382812 213.429688 505.382812 212.351562 L 505.382812 204.101562 L 508.730469 204.101562 L 508.730469 211.957031 C 508.730469 212.882812 509.191406 213.34375 510.117188 213.34375 L 514.921875 213.34375 C 515.847656 213.34375 516.304688 212.882812 516.304688 211.957031 L 516.304688 204.101562 L 519.65625 204.101562 L 519.65625 212.351562 C 519.65625 213.429688 519.339844 214.304688 518.707031 214.984375 C 518.089844 215.660156 517.109375 216 515.753906 216 Z M 522.078125 216 L 522.078125 204.101562 L 531.171875 204.101562 C 532.511719 204.101562 533.5 204.441406 534.128906 205.117188 C 534.761719 205.78125 535.078125 206.660156 535.078125 207.753906 L 535.078125 210.222656 L 531.683594 210.222656 L 531.683594 208.167969 C 531.683594 207.246094 531.21875 206.78125 530.296875 206.78125 L 525.472656 206.78125 L 525.472656 216 Z M 536.917969 216 L 536.917969 204.101562 L 546.011719 204.101562 C 547.351562 204.101562 548.339844 204.441406 548.96875 205.117188 C 549.601562 205.78125 549.914062 206.660156 549.914062 207.753906 L 549.914062 210.222656 L 546.523438 210.222656 L 546.523438 208.167969 C 546.523438 207.246094 546.058594 206.78125 545.136719 206.78125 L 540.308594 206.78125 L 540.308594 216 Z M 558.300781 216.117188 C 556.238281 216.117188 554.628906 215.605469 553.476562 214.589844 C 552.320312 213.558594 551.742188 212.050781 551.742188 210.0625 C 551.742188 208.0625 552.320312 206.550781 553.476562 205.535156 C 554.628906 204.503906 556.238281 203.988281 558.300781 203.988281 L 564.078125 203.988281 C 565.425781 203.988281 566.457031 204.308594 567.171875 204.957031 C 567.894531 205.589844 568.253906 206.496094 568.253906 207.683594 C 568.253906 210.101562 566.863281 211.308594 564.078125 211.308594 L 555.34375 211.308594 C 555.667969 212.742188 556.65625 213.457031 558.300781 213.457031 L 567.652344 213.457031 L 567.652344 216.117188 Z M 558.300781 206.644531 C 556.714844 206.644531 555.738281 207.3125 555.367188 208.652344 L 563.914062 208.652344 C 564.222656 208.652344 564.460938 208.5625 564.628906 208.375 C 564.816406 208.191406 564.90625 207.9375 564.90625 207.613281 C 564.90625 206.96875 564.574219 206.644531 563.914062 206.644531 Z M 570.335938 216 L 570.335938 204.101562 L 580.703125 204.101562 C 582.058594 204.101562 583.046875 204.441406 583.664062 205.117188 C 584.292969 205.78125 584.605469 206.660156 584.605469 207.753906 L 584.605469 216 L 581.261719 216 L 581.261719 208.144531 C 581.261719 207.222656 580.796875 206.757812 579.875 206.757812 L 573.6875 206.757812 L 573.6875 216 Z M 593.121094 216.117188 C 591.058594 216.117188 589.449219 215.605469 588.292969 214.589844 C 587.140625 213.558594 586.5625 212.050781 586.5625 210.0625 C 586.5625 208.0625 587.140625 206.550781 588.292969 205.535156 C 589.449219 204.503906 591.058594 203.988281 593.121094 203.988281 L 600.859375 203.988281 L 600.859375 206.644531 L 593.121094 206.644531 C 592.121094 206.644531 591.351562 206.921875 590.8125 207.476562 C 590.289062 208.03125 590.027344 208.890625 590.027344 210.0625 C 590.027344 211.21875 590.289062 212.074219 590.8125 212.628906 C 591.351562 213.183594 592.121094 213.457031 593.121094 213.457031 L 601.089844 213.457031 L 601.089844 216.117188 Z M 605.488281 221.199219 L 605.488281 218.542969 L 612.460938 218.542969 C 613.386719 218.542969 613.847656 218.070312 613.847656 217.132812 L 613.847656 216 L 606.714844 216 C 605.359375 216 604.367188 215.660156 603.734375 214.984375 C 603.117188 214.304688 602.808594 213.429688 602.808594 212.351562 L 602.808594 204.101562 L 606.160156 204.101562 L 606.160156 211.957031 C 606.160156 212.882812 606.621094 213.34375 607.546875 213.34375 L 613.734375 213.34375 L 613.734375 204.101562 L 617.199219 204.101562 L 617.199219 217.546875 C 617.199219 218.640625 616.882812 219.519531 616.25 220.179688 C 615.621094 220.859375 614.636719 221.199219 613.296875 221.199219 Z M 605.488281 221.199219 "/>
</g>
</svg>
